<?xml version="1.0" encoding="UTF-8"?>
<svg xmlns="http://www.w3.org/2000/svg" id="Icons" viewBox="0 0 74 74" width="512" height="512"><path d="M71,21a1,1,0,0,1-1-1V4H54a1,1,0,0,1,0-2H71a1,1,0,0,1,1,1V20A1,1,0,0,1,71,21Z"/><path d="M20,72H3a1,1,0,0,1-1-1V54a1,1,0,0,1,2,0V70H20a1,1,0,0,1,0,2Z"/><path d="M3,21a1,1,0,0,1-1-1V3A1,1,0,0,1,3,2H20a1,1,0,0,1,0,2H4V20A1,1,0,0,1,3,21Z"/><path d="M71,72H54a1,1,0,0,1,0-2H70V54a1,1,0,0,1,2,0V71A1,1,0,0,1,71,72Z"/><path d="M27.741,16.95a1,1,0,0,1-.413-1.911,20.448,20.448,0,0,1,2.387-.9,1,1,0,0,1,.589,1.911,18.606,18.606,0,0,0-2.152.816A.986.986,0,0,1,27.741,16.95Z"/><path d="M37,61A24,24,0,0,1,14.2,44.47,23.583,23.583,0,0,1,13,37a23.9,23.9,0,0,1,6.136-16.008A22.463,22.463,0,0,1,22.217,18.1a1,1,0,1,1,1.226,1.58,20.569,20.569,0,0,0-2.813,2.641A21.914,21.914,0,0,0,15,37a21.6,21.6,0,0,0,1.1,6.844A22,22,0,0,0,59,37a21.6,21.6,0,0,0-1.1-6.844A21.971,21.971,0,0,0,41.517,15.469a22.629,22.629,0,0,0-5.7-.441,1.013,1.013,0,0,1-1.049-.948,1,1,0,0,1,.949-1.049,24.561,24.561,0,0,1,6.206.481A23.971,23.971,0,0,1,59.8,29.53,23.583,23.583,0,0,1,61,37,24.031,24.031,0,0,1,37,61Z"/><path d="M41.492,45.781H32.508a1,1,0,0,1-.866-.5L27.149,37.5a1,1,0,0,1,0-1l4.493-7.781a1,1,0,0,1,.866-.5h8.984a1,1,0,0,1,.866.5L46.851,36.5a1,1,0,0,1,0,1l-4.493,7.781A1,1,0,0,1,41.492,45.781Zm-8.407-2h7.83L44.83,37l-3.915-6.781h-7.83L29.17,37Z"/><path d="M32.5,30.218a1,1,0,0,1-.846-1.53l9.219-14.73a1,1,0,1,1,1.7,1.062L33.353,29.749A1,1,0,0,1,32.5,30.218Z"/><path d="M28.015,38a1,1,0,0,1-.885-.531L18.984,22.122a1,1,0,1,1,1.766-.938L28.9,36.533A1,1,0,0,1,28.015,38Z"/><path d="M32.509,45.783h-.036l-17.366-.619a1,1,0,1,1,.071-2l17.366.619a1,1,0,0,1-.035,2Z"/><path d="M32.274,60.511a1,1,0,0,1-.846-1.531l9.219-14.729a1,1,0,0,1,1.7,1.061l-9.219,14.73A1,1,0,0,1,32.274,60.511Z"/><path d="M54.134,53.347a1,1,0,0,1-.884-.531L45.1,37.467a1,1,0,0,1,1.767-.937l8.146,15.348A1,1,0,0,1,54.6,53.23.99.99,0,0,1,54.134,53.347Z"/><path d="M58.858,30.836h-.036l-17.366-.619a1,1,0,0,1-.964-1.035.989.989,0,0,1,1.035-.964l17.366.619a1,1,0,0,1-.035,2Z"/></svg>
